Coordinates
version=1
nRows=60
nColumns=12
inDegrees=yes

Units are S.I. units (second, meters, Newtons, ...)
Angles are in degrees

endheader
time	SC_y	SC_z	SC_x	AC_y	AC_z	AC_x	GH_y	GH_z	GH_yy	EL_x	PS_y
       0.0              -44.93          9.941          66.31          54.33         -3.899         -10.73          89.66          71.45          37.37          86.55          65.54
   0.01669              -44.93          9.939          66.31          54.33           -3.9         -10.73          89.67          71.44          37.35          86.55          65.54
   0.03338              -44.93          9.938          66.31          54.33         -3.902         -10.73          89.68          71.43          37.32          86.55          65.55
   0.05008              -44.93          9.937           66.3          54.33         -3.904         -10.72          89.69          71.42          37.29          86.55          65.56
   0.06677              -44.93          9.935           66.3          54.33         -3.906         -10.72           89.7          71.41          37.26          86.55          65.57
   0.08346              -44.92          9.934           66.3          54.33         -3.909         -10.72          89.71          71.39          37.23          86.55          65.58
    0.1002              -44.92          9.932           66.3          54.34         -3.911         -10.72          89.72          71.38          37.19          86.55          65.59
    0.1168              -44.92           9.93           66.3          54.34         -3.914         -10.72          89.73          71.36          37.16          86.55           65.6
    0.1335              -44.92          9.928          66.29          54.34         -3.916         -10.72          89.74          71.34          37.12          86.55          65.61
    0.1502              -44.92          9.926          66.29          54.34         -3.919         -10.72          89.75          71.32          37.08          86.55          65.62
    0.1669              -44.92          9.924          66.29          54.34         -3.923         -10.72          89.77           71.3          37.03          86.55          65.63
    0.1836              -44.91          9.922          66.29          54.34         -3.926         -10.71          89.78          71.28          36.98          86.55          65.64
    0.2003              -44.91          9.919          66.28          54.35          -3.93         -10.71           89.8          71.26          36.93          86.55          65.66
     0.217              -44.91          9.916          66.28          54.35         -3.934         -10.71          89.82          71.23          36.87          86.55          65.67
    0.2337               -44.9          9.913          66.28          54.35         -3.938         -10.71          89.84          71.21          36.81          86.54          65.69
    0.2504               -44.9           9.91          66.27          54.35         -3.943         -10.71          89.86          71.18          36.74          86.54          65.71
    0.2671               -44.9          9.907          66.27          54.36         -3.948         -10.71          89.88          71.15          36.67          86.54          65.73
    0.2838              -44.89          9.903          66.26          54.36         -3.954          -10.7           89.9          71.11          36.59          86.54          65.75
    0.3005              -44.89          9.899          66.26          54.36          -3.96          -10.7          89.93          71.07           36.5          86.54          65.77
    0.3172              -44.89          9.894          66.25          54.37         -3.966          -10.7          89.96          71.03          36.41          86.54           65.8
    0.3338              -44.88          9.889          66.25          54.37         -3.974         -10.69          89.99          70.99          36.31          86.54          65.82
    0.3505              -44.88          9.884          66.24          54.37         -3.982         -10.69          90.03          70.94          36.19          86.54          65.86
    0.3672              -44.87          9.877          66.23          54.38         -3.991         -10.69          90.07          70.88          36.07          86.54          65.89
    0.3839              -44.86          9.871          66.22          54.38         -4.001         -10.68          90.11          70.82          35.93          86.54          65.93
    0.4006              -44.86          9.863          66.21          54.39         -4.011         -10.68          90.16          70.75          35.77          86.54          65.97
    0.4173              -44.85          9.855           66.2           54.4         -4.024         -10.67          90.21          70.68           35.6          86.53          66.02
     0.434              -44.84          9.845          66.19          54.41         -4.037         -10.67          90.27          70.59           35.4          86.53          66.07
    0.4507              -44.83          9.835          66.18          54.41         -4.053         -10.66          90.34          70.49          35.18          86.53          66.13
    0.4674              -44.82          9.823          66.17          54.42          -4.07         -10.65          90.42          70.39          34.94          86.53          66.19
    0.4841              -44.81          9.809          66.15          54.43          -4.09         -10.64          90.51          70.26          34.65          86.53          66.27
    0.5008              -44.79          9.794          66.13          54.45         -4.113         -10.63           90.6          70.12          34.33          86.52          66.36
    0.5175              -44.77          9.776          66.11          54.46         -4.139         -10.62          90.72          69.96          33.97          86.52          66.46
    0.5342              -44.75          9.755          66.08          54.48         -4.169         -10.61          90.85          69.78          33.54          86.51          66.57
    0.5508              -44.73          9.732          66.05           54.5         -4.203         -10.59           91.0          69.56          33.05          86.51           66.7
    0.5675               -44.7          9.704          66.02          54.52         -4.244         -10.57          91.18          69.31          32.47          86.51          66.86
    0.5842              -44.67          9.671          65.98          54.55         -4.292         -10.55          91.39          69.01          31.79           86.5          67.04
    0.6009              -44.64          9.632          65.93          54.58         -4.349         -10.53          91.64          68.66          30.98          86.49          67.26
    0.6176              -44.59          9.585          65.88          54.61         -4.417          -10.5          91.94          68.23          30.01          86.48          67.52
    0.6343              -44.54          9.528          65.81          54.66           -4.5         -10.46          92.31          67.72          28.84          86.47          67.84
     0.651              -44.47          9.459          65.72          54.72         -4.601         -10.41          92.75          67.09          27.41          86.46          68.23
    0.6677              -44.39          9.373          65.62          54.78         -4.726         -10.36           93.3          66.31          25.64          86.44           68.7
    0.6844              -44.29          9.267          65.49          54.87         -4.881         -10.29          93.98          65.35          23.43          86.42           69.3
    0.7011              -44.16          9.132          65.32          54.98         -5.077          -10.2          94.84          64.13          20.66           86.4          70.05
    0.7178              -43.99          8.962          65.12          55.11         -5.326         -10.09          95.94          62.59          17.13          86.36           71.0
    0.7345              -43.78          8.743          64.85          55.29         -5.644         -9.949          97.34          60.61          12.61          86.32          72.22
    0.7512              -43.52          8.463          64.51          55.51         -6.053         -9.766          99.14          58.07          6.807          86.27          73.78
    0.7678              -43.17          8.104          64.07           55.8         -6.575         -9.534          101.4          54.82        -0.6012           86.2          75.78
    0.7845              -42.74          7.654          63.52          56.16         -7.232         -9.241          104.3          50.74         -9.916          86.12          78.29
    0.8012              -42.22          7.105          62.86           56.6         -8.032         -8.884          107.8          45.77         -21.27          86.01          81.36
    0.8179              -41.61          6.469          62.08          57.11         -8.959          -8.47          111.9          40.01         -34.43          85.89          84.91
    0.8346              -40.95           5.78          61.24          57.67         -9.963         -8.023          116.3          33.77         -48.67          85.76          88.75
    0.8513              -40.29          5.091           60.4          58.22         -10.97         -7.575          120.8          27.53         -62.92          85.63          92.59
     0.868              -39.68          4.454          59.63          58.73         -11.89         -7.161          124.8          21.76         -76.08          85.51          96.14
    0.8847              -39.15          3.905          58.96          59.17          -12.7         -6.804          128.4          16.79         -87.43          85.41          99.21
    0.9014              -38.72          3.455          58.41          59.53         -13.35         -6.512          131.2          12.71         -96.74          85.32          101.7
    0.9181              -38.38          3.097          57.98          59.82         -13.87         -6.279          133.5          9.467         -104.2          85.25          103.7
    0.9348              -38.11          2.816          57.64          60.04         -14.28         -6.097          135.3          6.926         -110.0           85.2          105.3
    0.9515               -37.9          2.598          57.37          60.22          -14.6         -5.954          136.7          4.947         -114.5          85.16          106.5
    0.9682              -37.74          2.427          57.16          60.36         -14.85         -5.844          137.8            3.4         -118.0          85.13          107.5
    0.9848              -37.61          2.293           57.0          60.46         -15.05         -5.756          138.7          2.184         -120.8           85.1          108.2
